<svg width="36" height="34" viewBox="0 0 36 34" fill="none" xmlns="http://www.w3.org/2000/svg">
<rect width="36" height="34" rx="17" fill="#F2F4F7"/>
<path fill-rule="evenodd" clip-rule="evenodd" d="M15.2422 11.5236C13.896 11.5236 12.8047 12.6149 12.8047 13.9611V19.9611C12.8047 21.3073 13.896 22.3986 15.2422 22.3986H21.2422C22.5884 22.3986 23.6797 21.3073 23.6797 19.9611V13.9611C23.6797 12.6149 22.5884 11.5236 21.2422 11.5236H15.2422ZM11.6797 13.9611C11.6797 11.9935 13.2747 10.3986 15.2422 10.3986H21.2422C23.2097 10.3986 24.8047 11.9935 24.8047 13.9611V19.9611C24.8047 21.9286 23.2097 23.5236 21.2422 23.5236H15.2422C13.2747 23.5236 11.6797 21.9286 11.6797 19.9611V13.9611ZM18.2422 15.2736C17.3102 15.2736 16.5547 16.0291 16.5547 16.9611C16.5547 17.893 17.3102 18.6486 18.2422 18.6486C19.1742 18.6486 19.9297 17.893 19.9297 16.9611C19.9297 16.0291 19.1742 15.2736 18.2422 15.2736ZM15.4297 16.9611C15.4297 15.4078 16.6889 14.1486 18.2422 14.1486C19.7955 14.1486 21.0547 15.4078 21.0547 16.9611C21.0547 18.5144 19.7955 19.7736 18.2422 19.7736C16.6889 19.7736 15.4297 18.5144 15.4297 16.9611ZM22.1797 13.5861C22.1797 13.2754 21.9278 13.0236 21.6172 13.0236C21.3065 13.0236 21.0547 13.2754 21.0547 13.5861V13.5871C21.0547 13.8977 21.3065 14.1496 21.6172 14.1496C21.9278 14.1496 22.1797 13.8977 22.1797 13.5871V13.5861Z" fill="#282828"/>
</svg>
